<svg xmlns="http://www.w3.org/2000/svg" xmlns:xlink="http://www.w3.org/1999/xlink" width="500" zoomAndPan="magnify" viewBox="0 0 375 374.999991" height="500" preserveAspectRatio="xMidYMid meet" version="1.0"><defs><g/><clipPath id="id1"><path d="M 140.027344 101 L 173 101 L 173 150 L 140.027344 150 Z M 140.027344 101 " clip-rule="nonzero"/></clipPath><clipPath id="id2"><path d="M 199 101 L 232.277344 101 L 232.277344 150 L 199 150 Z M 199 101 " clip-rule="nonzero"/></clipPath><clipPath id="id3"><path d="M 170 89.539062 L 202 89.539062 L 202 161.539062 L 170 161.539062 Z M 170 89.539062 " clip-rule="nonzero"/></clipPath></defs><path fill="#7456ff" d="M 169.128906 148.242188 C 168.621094 148.242188 168.117188 148.070312 167.71875 147.75 L 141.917969 127.34375 C 141.363281 126.902344 141.046875 126.246094 141.046875 125.539062 C 141.046875 124.828125 141.363281 124.171875 141.917969 123.730469 L 167.71875 103.328125 C 168.117188 103.007812 168.621094 102.835938 169.128906 102.835938 C 169.835938 102.835938 170.492188 103.152344 170.925781 103.710938 C 171.300781 104.191406 171.472656 104.796875 171.398438 105.402344 C 171.328125 106.011719 171.023438 106.554688 170.542969 106.933594 L 147.03125 125.539062 L 170.542969 144.136719 C 171.023438 144.519531 171.328125 145.0625 171.398438 145.671875 C 171.472656 146.28125 171.300781 146.878906 170.925781 147.363281 C 170.492188 147.921875 169.835938 148.242188 169.128906 148.242188 " fill-opacity="1" fill-rule="nonzero"/><g clip-path="url(#id1)"><path fill="#7456ff" d="M 169.128906 101.855469 C 168.402344 101.855469 167.691406 102.101562 167.117188 102.558594 L 141.316406 122.964844 C 140.523438 123.59375 140.074219 124.527344 140.074219 125.539062 C 140.074219 126.546875 140.527344 127.488281 141.316406 128.113281 L 167.117188 148.519531 C 167.6875 148.96875 168.402344 149.21875 169.128906 149.21875 C 170.140625 149.21875 171.074219 148.761719 171.691406 147.96875 C 172.234375 147.28125 172.46875 146.425781 172.367188 145.558594 C 172.265625 144.6875 171.832031 143.910156 171.148438 143.371094 L 148.601562 125.539062 L 171.148438 107.707031 C 171.832031 107.164062 172.265625 106.386719 172.367188 105.519531 C 172.46875 104.648438 172.234375 103.792969 171.691406 103.105469 C 171.074219 102.308594 170.136719 101.855469 169.128906 101.855469 Z M 169.128906 103.8125 C 169.519531 103.8125 169.90625 103.984375 170.160156 104.3125 C 170.613281 104.890625 170.511719 105.71875 169.945312 106.167969 L 145.453125 125.539062 L 169.945312 144.90625 C 170.511719 145.359375 170.613281 146.1875 170.160156 146.757812 C 169.90625 147.089844 169.519531 147.261719 169.128906 147.261719 C 168.847656 147.261719 168.5625 147.171875 168.320312 146.980469 L 142.519531 126.574219 C 142.203125 126.324219 142.019531 125.941406 142.019531 125.539062 C 142.019531 125.132812 142.203125 124.75 142.519531 124.5 L 168.320312 104.09375 C 168.558594 103.902344 168.847656 103.8125 169.128906 103.8125 " fill-opacity="1" fill-rule="nonzero"/></g><path fill="#7456ff" d="M 203.171875 148.242188 C 202.46875 148.242188 201.8125 147.921875 201.375 147.363281 C 200.59375 146.371094 200.765625 144.921875 201.757812 144.136719 L 225.277344 125.539062 L 201.757812 106.933594 C 200.765625 106.152344 200.59375 104.703125 201.375 103.710938 C 201.8125 103.152344 202.46875 102.835938 203.171875 102.835938 C 203.683594 102.835938 204.183594 103.007812 204.585938 103.328125 L 230.386719 123.730469 C 230.941406 124.171875 231.253906 124.828125 231.253906 125.539062 C 231.253906 126.246094 230.941406 126.902344 230.382812 127.34375 L 204.585938 147.75 C 204.183594 148.070312 203.683594 148.242188 203.171875 148.242188 " fill-opacity="1" fill-rule="nonzero"/><g clip-path="url(#id2)"><path fill="#7456ff" d="M 203.171875 101.855469 C 202.167969 101.855469 201.234375 102.308594 200.609375 103.105469 C 199.5 104.523438 199.742188 106.585938 201.15625 107.707031 L 223.699219 125.539062 L 201.15625 143.371094 C 199.742188 144.484375 199.5 146.550781 200.609375 147.96875 C 201.234375 148.761719 202.167969 149.21875 203.171875 149.21875 C 203.898438 149.21875 204.613281 148.96875 205.183594 148.519531 L 230.988281 128.113281 C 231.777344 127.488281 232.226562 126.546875 232.226562 125.539062 C 232.226562 124.527344 231.777344 123.59375 230.992188 122.964844 L 205.1875 102.558594 C 204.617188 102.101562 203.898438 101.855469 203.171875 101.855469 Z M 203.171875 103.8125 C 203.457031 103.8125 203.746094 103.902344 203.980469 104.09375 L 229.785156 124.5 C 230.097656 124.75 230.28125 125.132812 230.28125 125.539062 C 230.28125 125.941406 230.097656 126.324219 229.785156 126.574219 L 203.980469 146.980469 C 203.746094 147.171875 203.457031 147.261719 203.171875 147.261719 C 202.78125 147.261719 202.398438 147.089844 202.140625 146.757812 C 201.691406 146.1875 201.789062 145.359375 202.359375 144.90625 L 226.847656 125.539062 L 202.359375 106.167969 C 201.789062 105.71875 201.691406 104.890625 202.140625 104.3125 C 202.398438 103.984375 202.785156 103.8125 203.171875 103.8125 " fill-opacity="1" fill-rule="nonzero"/></g><path fill="#7456ff" d="M 173.332031 160.554688 C 173.046875 160.554688 172.769531 160.5 172.503906 160.398438 C 171.9375 160.175781 171.484375 159.746094 171.242188 159.1875 C 170.992188 158.621094 170.980469 158 171.199219 157.429688 L 196.394531 91.988281 C 196.734375 91.109375 197.589844 90.519531 198.523438 90.519531 C 198.808594 90.519531 199.089844 90.574219 199.355469 90.675781 C 200.527344 91.132812 201.113281 92.46875 200.65625 93.652344 L 175.464844 159.089844 C 175.125 159.964844 174.265625 160.554688 173.332031 160.554688 " fill-opacity="1" fill-rule="nonzero"/><g clip-path="url(#id3)"><path fill="#7456ff" d="M 198.523438 89.542969 C 197.191406 89.542969 195.96875 90.386719 195.488281 91.636719 L 170.289062 157.074219 C 169.980469 157.890625 170 158.78125 170.347656 159.582031 C 170.703125 160.378906 171.339844 161 172.15625 161.3125 C 172.53125 161.460938 172.925781 161.535156 173.332031 161.535156 C 174.664062 161.535156 175.886719 160.691406 176.371094 159.441406 L 201.566406 94.003906 C 202.214844 92.316406 201.378906 90.414062 199.699219 89.765625 C 199.328125 89.617188 198.929688 89.542969 198.523438 89.542969 Z M 198.523438 91.5 C 198.683594 91.5 198.84375 91.53125 199 91.589844 C 199.675781 91.851562 200.011719 92.613281 199.75 93.292969 L 174.550781 158.730469 C 174.355469 159.257812 173.855469 159.578125 173.332031 159.578125 C 173.171875 159.578125 173.011719 159.550781 172.855469 159.488281 C 172.179688 159.226562 171.84375 158.457031 172.109375 157.78125 L 197.304688 92.34375 C 197.503906 91.820312 198 91.5 198.523438 91.5 " fill-opacity="1" fill-rule="nonzero"/></g><g fill="#ffffff" fill-opacity="1"><g transform="translate(49.729439, 231.215679)"><g><path d="M 28.917969 -20.25 L 39.421875 -20.25 L 39.421875 -10.949219 C 36.511719 -9.300781 33.222656 -8.480469 29.742188 -8.480469 C 20.503906 -8.480469 12.972656 -13.792969 12.972656 -25.628906 L 12.972656 -25.753906 C 12.972656 -37.652344 20.503906 -42.902344 29.742188 -42.902344 C 35.246094 -42.902344 40.308594 -41.320312 44.105469 -38.601562 L 47.964844 -47.269531 C 41.765625 -50.6875 36.070312 -52.207031 29.488281 -52.207031 C 13.542969 -52.207031 2.59375 -41.449219 2.59375 -25.753906 L 2.59375 -25.628906 C 2.59375 -10 13.542969 0.824219 29.488281 0.824219 C 35.941406 0.824219 43.851562 -1.011719 48.851562 -4.304688 L 48.851562 -28.222656 L 28.917969 -28.222656 Z M 28.917969 -20.25 "/></g></g></g><g fill="#ffffff" fill-opacity="1"><g transform="translate(99.772382, 231.215679)"><g><path d="M 20.25 1.011719 C 23.917969 1.011719 31.070312 0.191406 37.082031 -0.886719 L 37.082031 -36.320312 L 27.082031 -36.320312 L 27.082031 -8.226562 C 24.742188 -7.785156 22.464844 -7.59375 20.691406 -7.59375 C 15.945312 -7.59375 13.476562 -9.238281 13.476562 -13.859375 L 13.476562 -36.320312 L 3.417969 -36.320312 L 3.417969 -13.035156 C 3.417969 -2.152344 11.265625 1.011719 20.25 1.011719 Z M 20.25 1.011719 "/></g></g></g><g fill="#ffffff" fill-opacity="1"><g transform="translate(137.921289, 231.215679)"><g><path d="M 18.539062 0.824219 C 29.363281 0.824219 34.738281 -3.101562 34.738281 -10.949219 C 34.738281 -16.707031 30.945312 -20.25 22.78125 -22.527344 L 20.1875 -23.222656 C 15.820312 -24.488281 14.046875 -25.375 14.046875 -27.210938 C 14.046875 -29.234375 16.199219 -29.929688 19.871094 -29.929688 C 22.96875 -29.929688 27.335938 -29.234375 30.5625 -27.527344 L 33.476562 -34.550781 C 29.742188 -36.511719 24.171875 -37.714844 18.667969 -37.714844 C 9.238281 -37.714844 3.921875 -33.601562 3.921875 -26.894531 C 3.921875 -20.882812 7.339844 -17.339844 14.933594 -15.3125 L 18.351562 -14.425781 C 23.667969 -12.972656 24.867188 -12.148438 24.867188 -10.1875 C 24.867188 -7.53125 21.957031 -6.960938 17.65625 -6.960938 C 13.984375 -6.960938 9.554688 -7.785156 5.316406 -9.617188 L 2.59375 -2.339844 C 7.785156 -0.191406 12.84375 0.824219 18.539062 0.824219 Z M 18.539062 0.824219 "/></g></g></g><g fill="#ffffff" fill-opacity="1"><g transform="translate(172.780363, 231.215679)"><g><path d="M 31.195312 0 L 31.195312 -9.300781 L 24.171875 -9.300781 C 19.871094 -9.300781 17.90625 -10.949219 17.90625 -14.996094 L 17.90625 -27.082031 L 31.132812 -27.082031 L 31.132812 -36.320312 L 17.90625 -36.320312 L 17.90625 -47.460938 L 7.847656 -47.460938 L 7.847656 -36.320312 L 1.457031 -36.320312 L 1.457031 -27.082031 L 7.847656 -27.082031 L 7.847656 -11.832031 C 7.847656 -3.921875 11.011719 0 19.679688 0 Z M 31.195312 0 "/></g></g></g><g fill="#ffffff" fill-opacity="1"><g transform="translate(204.223063, 231.215679)"><g><path d="M 20.375 -37.585938 C 15.757812 -37.585938 10.378906 -36.574219 7.65625 -35.5 L 5.441406 -26.578125 C 9.429688 -28.160156 14.617188 -29.109375 18.222656 -29.109375 C 23.792969 -29.109375 26.957031 -27.464844 26.957031 -22.90625 L 26.957031 -21.578125 C 23.984375 -21.957031 21.386719 -22.085938 18.730469 -22.085938 C 8.796875 -22.085938 2.53125 -18.539062 2.53125 -10.820312 L 2.53125 -10.695312 C 2.53125 -2.152344 9.429688 1.011719 20.566406 1.011719 C 25.5 1.011719 32.019531 0.316406 37.019531 -0.757812 L 37.019531 -23.222656 C 37.019531 -33.980469 30.4375 -37.585938 20.375 -37.585938 Z M 12.84375 -11.328125 C 12.84375 -14.554688 15.882812 -15.691406 20.945312 -15.691406 C 22.527344 -15.691406 24.933594 -15.503906 26.957031 -15.1875 L 26.957031 -7.339844 C 24.867188 -7.023438 22.652344 -6.835938 20.945312 -6.835938 C 15.820312 -6.835938 12.84375 -8.101562 12.84375 -11.199219 Z M 12.84375 -11.328125 "/></g></g></g><g fill="#ffffff" fill-opacity="1"><g transform="translate(242.118919, 231.215679)"><g><path d="M 20.058594 -7.085938 L 11.265625 -36.320312 L 0.757812 -36.320312 L 13.160156 0 L 26.957031 0 L 39.359375 -36.320312 L 28.855469 -36.320312 Z M 20.058594 -7.085938 "/></g></g></g><g fill="#ffffff" fill-opacity="1"><g transform="translate(279.824966, 231.215679)"><g><path d="M 22.71875 1.011719 C 34.613281 1.011719 42.902344 -7.214844 42.902344 -18.414062 L 42.902344 -18.476562 C 42.902344 -29.613281 34.613281 -37.777344 22.71875 -37.777344 C 10.820312 -37.777344 2.59375 -29.613281 2.59375 -18.476562 L 2.59375 -18.414062 C 2.59375 -7.214844 10.882812 1.011719 22.71875 1.011719 Z M 22.71875 -7.972656 C 16.707031 -7.972656 12.65625 -12.527344 12.65625 -18.414062 L 12.65625 -18.539062 C 12.65625 -24.363281 16.640625 -28.792969 22.71875 -28.792969 C 28.855469 -28.792969 32.777344 -24.363281 32.777344 -18.539062 L 32.777344 -18.414062 C 32.777344 -12.527344 28.792969 -7.972656 22.71875 -7.972656 Z M 22.71875 -7.972656 "/></g></g></g><g fill="#7456ff" fill-opacity="1"><g transform="translate(149.730246, 275.798014)"><g><path d="M 12.785156 0 L 12.785156 -19.515625 L 20.335938 -19.515625 L 20.335938 -23.832031 L 0.585938 -23.832031 L 0.585938 -19.515625 L 8.167969 -19.515625 L 8.167969 0 Z M 12.785156 0 "/></g></g></g><g fill="#7456ff" fill-opacity="1"><g transform="translate(169.53015, 275.798014)"><g><path d="M 18.660156 -7.875 C 18.660156 -13.902344 15.371094 -17.542969 9.960938 -17.542969 C 4.613281 -17.542969 1.175781 -13.84375 1.175781 -8.582031 L 1.175781 -8.550781 C 1.175781 -3.203125 4.847656 0.441406 10.519531 0.441406 C 13.8125 0.441406 16.132812 -0.585938 17.839844 -1.644531 L 15.8125 -5.261719 C 14.578125 -4.378906 12.785156 -3.644531 10.726562 -3.644531 C 8.167969 -3.644531 6.496094 -5.289062 6.023438 -7.464844 L 18.660156 -7.464844 Z M 9.933594 -13.753906 C 12.195312 -13.753906 13.546875 -12.285156 13.902344 -10.34375 L 6.054688 -10.34375 C 6.496094 -12.285156 7.90625 -13.753906 9.933594 -13.753906 Z M 9.933594 -13.753906 "/></g></g></g><g fill="#7456ff" fill-opacity="1"><g transform="translate(188.272463, 275.798014)"><g><path d="M 10.34375 0.441406 C 12.371094 0.441406 14.578125 -0.0585938 16.164062 -0.941406 L 14.339844 -4.410156 C 13.164062 -3.792969 11.960938 -3.4375 10.578125 -3.4375 C 7.582031 -3.4375 5.878906 -5.613281 5.878906 -8.523438 L 5.878906 -8.582031 C 5.878906 -11.519531 7.582031 -13.636719 10.578125 -13.636719 C 11.960938 -13.636719 13.195312 -13.253906 14.339844 -12.636719 L 16.191406 -16.105469 C 14.578125 -17.015625 12.371094 -17.542969 10.34375 -17.542969 C 4.789062 -17.542969 1.175781 -13.84375 1.175781 -8.582031 L 1.175781 -8.523438 C 1.175781 -3.234375 4.820312 0.441406 10.34375 0.441406 Z M 10.34375 0.441406 "/></g></g></g><g fill="#7456ff" fill-opacity="1"><g transform="translate(204.047651, 275.798014)"><g><path d="M 9.402344 -17.542969 C 8.609375 -17.542969 7.492188 -17.457031 6.257812 -17.339844 L 6.257812 -23.832031 L 1.585938 -23.832031 L 1.585938 0 L 6.257812 0 L 6.257812 -13.078125 C 7.316406 -13.253906 8.433594 -13.371094 9.226562 -13.371094 C 11.402344 -13.371094 12.546875 -12.578125 12.546875 -10.460938 L 12.546875 0 L 17.222656 0 L 17.222656 -11.019531 C 17.222656 -16.074219 13.578125 -17.542969 9.402344 -17.542969 Z M 9.402344 -17.542969 "/></g></g></g></svg>